<mxfile host="app.diagrams.net" modified="2023-08-10T02:03:11.004Z" agent="Mozilla/5.0 (Windows NT 10.0; Win64; x64) AppleWebKit/537.36 (KHTML, like Gecko) Chrome/115.0.0.0 Safari/537.36" version="21.6.7" etag="-xJw95mA7Ng0Yi1UboS-" type="github">
  <diagram name="페이지-1" id="dJBxxPnOCznobJPE72D4">
    <mxGraphModel>
      <root>
        <mxCell id="0" />
        <mxCell id="1" parent="0" />
      </root>
    </mxGraphModel>
  </diagram>
</mxfile>
